<svg xmlns="http://www.w3.org/2000/svg" version="1.1" xmlns:xlink="http://www.w3.org/1999/xlink" xmlns:svgjs="http://svgjs.com/svgjs" width="1440" height="560" preserveAspectRatio="none" viewBox="0 0 1440 560"><g mask="url(&quot;#SvgjsMask1012&quot;)" fill="none"><rect width="1440" height="560" x="0" y="0" fill="rgba(45, 48, 50, 1)"></rect><path d="M-48.02 343.12L-48.02 343.12" stroke="rgba(111, 99, 173, 0.53)" stroke-width="1.5"></path><path d="M-48.02 343.12L70.06 393.35" stroke="rgba(111, 99, 173, 0.53)" stroke-width="1.5"></path><path d="M-51.75 531.99L-51.75 531.99" stroke="rgba(111, 99, 173, 0.53)" stroke-width="1.5"></path><path d="M-51.75 531.99L106.62 556.67" stroke="rgba(111, 99, 173, 0.53)" stroke-width="1.5"></path><path d="M-51.75 531.99L-41.31 693.12" stroke="rgba(111, 99, 173, 0.53)" stroke-width="1.5"></path><path d="M-51.75 531.99L70.06 393.35" stroke="rgba(111, 99, 173, 0.53)" stroke-width="1.5"></path><path d="M-51.75 531.99L-48.02 343.12" stroke="rgba(111, 99, 173, 0.53)" stroke-width="1.5"></path><path d="M-51.75 531.99L219.04 557.91" stroke="rgba(111, 99, 173, 0.53)" stroke-width="1.5"></path><path d="M-51.75 531.99L217.23 710.57" stroke="rgba(111, 99, 173, 0.53)" stroke-width="1.5"></path><path d="M-41.31 693.12L-41.31 693.12" stroke="rgba(111, 99, 173, 0.53)" stroke-width="1.5"></path><path d="M-41.31 693.12L106.62 556.67" stroke="rgba(111, 99, 173, 0.53)" stroke-width="1.5"></path><path d="M-41.31 693.12L217.23 710.57" stroke="rgba(111, 99, 173, 0.53)" stroke-width="1.5"></path><path d="M-41.31 693.12L219.04 557.91" stroke="rgba(111, 99, 173, 0.53)" stroke-width="1.5"></path><path d="M70.06 393.35L70.06 393.35" stroke="rgba(111, 99, 173, 0.53)" stroke-width="1.5"></path><path d="M70.06 393.35L106.62 556.67" stroke="rgba(111, 99, 173, 0.53)" stroke-width="1.5"></path><path d="M70.06 393.35L254.77 349.93" stroke="rgba(111, 99, 173, 0.53)" stroke-width="1.5"></path><path d="M70.06 393.35L219.04 557.91" stroke="rgba(111, 99, 173, 0.53)" stroke-width="1.5"></path><path d="M106.62 556.67L106.62 556.67" stroke="rgba(111, 99, 173, 0.53)" stroke-width="1.5"></path><path d="M106.62 556.67L219.04 557.91" stroke="rgba(111, 99, 173, 0.53)" stroke-width="1.5"></path><path d="M106.62 556.67L217.23 710.57" stroke="rgba(111, 99, 173, 0.53)" stroke-width="1.5"></path><path d="M254.77 349.93L254.77 349.93" stroke="rgba(111, 99, 173, 0.53)" stroke-width="1.5"></path><path d="M254.77 349.93L363.02 412.22" stroke="rgba(111, 99, 173, 0.53)" stroke-width="1.5"></path><path d="M254.77 349.93L351.79 489.12" stroke="rgba(111, 99, 173, 0.53)" stroke-width="1.5"></path><path d="M254.77 349.93L219.04 557.91" stroke="rgba(111, 99, 173, 0.53)" stroke-width="1.5"></path><path d="M254.77 349.93L106.62 556.67" stroke="rgba(111, 99, 173, 0.53)" stroke-width="1.5"></path><path d="M219.04 557.91L219.04 557.91" stroke="rgba(111, 99, 173, 0.53)" stroke-width="1.5"></path><path d="M219.04 557.91L351.79 489.12" stroke="rgba(111, 99, 173, 0.53)" stroke-width="1.5"></path><path d="M219.04 557.91L217.23 710.57" stroke="rgba(111, 99, 173, 0.53)" stroke-width="1.5"></path><path d="M217.23 710.57L217.23 710.57" stroke="rgba(111, 99, 173, 0.53)" stroke-width="1.5"></path><path d="M217.23 710.57L359.74 689.51" stroke="rgba(111, 99, 173, 0.53)" stroke-width="1.5"></path><path d="M217.23 710.57L351.79 489.12" stroke="rgba(111, 99, 173, 0.53)" stroke-width="1.5"></path><path d="M363.02 412.22L363.02 412.22" stroke="rgba(111, 99, 173, 0.53)" stroke-width="1.5"></path><path d="M363.02 412.22L351.79 489.12" stroke="rgba(111, 99, 173, 0.53)" stroke-width="1.5"></path><path d="M363.02 412.22L516.23 512.89" stroke="rgba(111, 99, 173, 0.53)" stroke-width="1.5"></path><path d="M363.02 412.22L542.02 341.23" stroke="rgba(111, 99, 173, 0.53)" stroke-width="1.5"></path><path d="M363.02 412.22L219.04 557.91" stroke="rgba(111, 99, 173, 0.53)" stroke-width="1.5"></path><path d="M351.79 489.12L351.79 489.12" stroke="rgba(111, 99, 173, 0.53)" stroke-width="1.5"></path><path d="M351.79 489.12L516.23 512.89" stroke="rgba(111, 99, 173, 0.53)" stroke-width="1.5"></path><path d="M351.79 489.12L359.74 689.51" stroke="rgba(111, 99, 173, 0.53)" stroke-width="1.5"></path><path d="M351.79 489.12L542.02 341.23" stroke="rgba(111, 99, 173, 0.53)" stroke-width="1.5"></path><path d="M359.74 689.51L359.74 689.51" stroke="rgba(111, 99, 173, 0.53)" stroke-width="1.5"></path><path d="M359.74 689.51L543.16 641.5" stroke="rgba(111, 99, 173, 0.53)" stroke-width="1.5"></path><path d="M542.02 341.23L542.02 341.23" stroke="rgba(111, 99, 173, 0.53)" stroke-width="1.5"></path><path d="M542.02 341.23L516.23 512.89" stroke="rgba(111, 99, 173, 0.53)" stroke-width="1.5"></path><path d="M542.02 341.23L696.61 253" stroke="rgba(111, 99, 173, 0.53)" stroke-width="1.5"></path><path d="M542.02 341.23L693.09 494.88" stroke="rgba(111, 99, 173, 0.53)" stroke-width="1.5"></path><path d="M516.23 512.89L516.23 512.89" stroke="rgba(111, 99, 173, 0.53)" stroke-width="1.5"></path><path d="M516.23 512.89L543.16 641.5" stroke="rgba(111, 99, 173, 0.53)" stroke-width="1.5"></path><path d="M516.23 512.89L693.09 494.88" stroke="rgba(111, 99, 173, 0.53)" stroke-width="1.5"></path><path d="M516.23 512.89L359.74 689.51" stroke="rgba(111, 99, 173, 0.53)" stroke-width="1.5"></path><path d="M543.16 641.5L543.16 641.5" stroke="rgba(111, 99, 173, 0.53)" stroke-width="1.5"></path><path d="M543.16 641.5L708.82 682.99" stroke="rgba(111, 99, 173, 0.53)" stroke-width="1.5"></path><path d="M543.16 641.5L693.09 494.88" stroke="rgba(111, 99, 173, 0.53)" stroke-width="1.5"></path><path d="M543.16 641.5L351.79 489.12" stroke="rgba(111, 99, 173, 0.53)" stroke-width="1.5"></path><path d="M696.61 253L696.61 253" stroke="rgba(111, 99, 173, 0.53)" stroke-width="1.5"></path><path d="M696.61 253L827.53 364.15" stroke="rgba(111, 99, 173, 0.53)" stroke-width="1.5"></path><path d="M696.61 253L862.39 205.91" stroke="rgba(111, 99, 173, 0.53)" stroke-width="1.5"></path><path d="M696.61 253L693.09 494.88" stroke="rgba(111, 99, 173, 0.53)" stroke-width="1.5"></path><path d="M696.61 253L799.69 509.73" stroke="rgba(111, 99, 173, 0.53)" stroke-width="1.5"></path><path d="M696.61 253L941.86 390.03" stroke="rgba(111, 99, 173, 0.53)" stroke-width="1.5"></path><path d="M693.09 494.88L693.09 494.88" stroke="rgba(111, 99, 173, 0.53)" stroke-width="1.5"></path><path d="M693.09 494.88L799.69 509.73" stroke="rgba(111, 99, 173, 0.53)" stroke-width="1.5"></path><path d="M708.82 682.99L708.82 682.99" stroke="rgba(111, 99, 173, 0.53)" stroke-width="1.5"></path><path d="M708.82 682.99L693.09 494.88" stroke="rgba(111, 99, 173, 0.53)" stroke-width="1.5"></path><path d="M708.82 682.99L799.69 509.73" stroke="rgba(111, 99, 173, 0.53)" stroke-width="1.5"></path><path d="M708.82 682.99L516.23 512.89" stroke="rgba(111, 99, 173, 0.53)" stroke-width="1.5"></path><path d="M708.82 682.99L973.36 709.58" stroke="rgba(111, 99, 173, 0.53)" stroke-width="1.5"></path><path d="M862.39 205.91L862.39 205.91" stroke="rgba(111, 99, 173, 0.53)" stroke-width="1.5"></path><path d="M862.39 205.91L999.68 213.89" stroke="rgba(111, 99, 173, 0.53)" stroke-width="1.5"></path><path d="M862.39 205.91L827.53 364.15" stroke="rgba(111, 99, 173, 0.53)" stroke-width="1.5"></path><path d="M862.39 205.91L941.86 390.03" stroke="rgba(111, 99, 173, 0.53)" stroke-width="1.5"></path><path d="M862.39 205.91L987.34 37.8" stroke="rgba(111, 99, 173, 0.53)" stroke-width="1.5"></path><path d="M862.39 205.91L1121.85 204.81" stroke="rgba(111, 99, 173, 0.53)" stroke-width="1.5"></path><path d="M827.53 364.15L827.53 364.15" stroke="rgba(111, 99, 173, 0.53)" stroke-width="1.5"></path><path d="M827.53 364.15L941.86 390.03" stroke="rgba(111, 99, 173, 0.53)" stroke-width="1.5"></path><path d="M827.53 364.15L799.69 509.73" stroke="rgba(111, 99, 173, 0.53)" stroke-width="1.5"></path><path d="M799.69 509.73L799.69 509.73" stroke="rgba(111, 99, 173, 0.53)" stroke-width="1.5"></path><path d="M967.18 -66.72L967.18 -66.72" stroke="rgba(111, 99, 173, 0.53)" stroke-width="1.5"></path><path d="M967.18 -66.72L987.34 37.8" stroke="rgba(111, 99, 173, 0.53)" stroke-width="1.5"></path><path d="M967.18 -66.72L1105.95 -41.37" stroke="rgba(111, 99, 173, 0.53)" stroke-width="1.5"></path><path d="M987.34 37.8L987.34 37.8" stroke="rgba(111, 99, 173, 0.53)" stroke-width="1.5"></path><path d="M987.34 37.8L1105.95 -41.37" stroke="rgba(111, 99, 173, 0.53)" stroke-width="1.5"></path><path d="M999.68 213.89L999.68 213.89" stroke="rgba(111, 99, 173, 0.53)" stroke-width="1.5"></path><path d="M999.68 213.89L1121.85 204.81" stroke="rgba(111, 99, 173, 0.53)" stroke-width="1.5"></path><path d="M941.86 390.03L941.86 390.03" stroke="rgba(111, 99, 173, 0.53)" stroke-width="1.5"></path><path d="M941.86 390.03L948.7 495.84" stroke="rgba(111, 99, 173, 0.53)" stroke-width="1.5"></path><path d="M941.86 390.03L1087.94 382.95" stroke="rgba(111, 99, 173, 0.53)" stroke-width="1.5"></path><path d="M948.7 495.84L948.7 495.84" stroke="rgba(111, 99, 173, 0.53)" stroke-width="1.5"></path><path d="M948.7 495.84L799.69 509.73" stroke="rgba(111, 99, 173, 0.53)" stroke-width="1.5"></path><path d="M948.7 495.84L1097.62 559.51" stroke="rgba(111, 99, 173, 0.53)" stroke-width="1.5"></path><path d="M948.7 495.84L827.53 364.15" stroke="rgba(111, 99, 173, 0.53)" stroke-width="1.5"></path><path d="M948.7 495.84L1087.94 382.95" stroke="rgba(111, 99, 173, 0.53)" stroke-width="1.5"></path><path d="M973.36 709.58L973.36 709.58" stroke="rgba(111, 99, 173, 0.53)" stroke-width="1.5"></path><path d="M973.36 709.58L1135.17 683.1" stroke="rgba(111, 99, 173, 0.53)" stroke-width="1.5"></path><path d="M973.36 709.58L1097.62 559.51" stroke="rgba(111, 99, 173, 0.53)" stroke-width="1.5"></path><path d="M973.36 709.58L948.7 495.84" stroke="rgba(111, 99, 173, 0.53)" stroke-width="1.5"></path><path d="M1105.95 -41.37L1105.95 -41.37" stroke="rgba(111, 99, 173, 0.53)" stroke-width="1.5"></path><path d="M1105.95 -41.37L1135.07 65.97" stroke="rgba(111, 99, 173, 0.53)" stroke-width="1.5"></path><path d="M1135.07 65.97L1135.07 65.97" stroke="rgba(111, 99, 173, 0.53)" stroke-width="1.5"></path><path d="M1135.07 65.97L1121.85 204.81" stroke="rgba(111, 99, 173, 0.53)" stroke-width="1.5"></path><path d="M1135.07 65.97L1284.33 59.74" stroke="rgba(111, 99, 173, 0.53)" stroke-width="1.5"></path><path d="M1135.07 65.97L987.34 37.8" stroke="rgba(111, 99, 173, 0.53)" stroke-width="1.5"></path><path d="M1135.07 65.97L1287.53 -47.14" stroke="rgba(111, 99, 173, 0.53)" stroke-width="1.5"></path><path d="M1135.07 65.97L999.68 213.89" stroke="rgba(111, 99, 173, 0.53)" stroke-width="1.5"></path><path d="M1121.85 204.81L1121.85 204.81" stroke="rgba(111, 99, 173, 0.53)" stroke-width="1.5"></path><path d="M1087.94 382.95L1087.94 382.95" stroke="rgba(111, 99, 173, 0.53)" stroke-width="1.5"></path><path d="M1087.94 382.95L1247.79 363.57" stroke="rgba(111, 99, 173, 0.53)" stroke-width="1.5"></path><path d="M1087.94 382.95L1097.62 559.51" stroke="rgba(111, 99, 173, 0.53)" stroke-width="1.5"></path><path d="M1087.94 382.95L1121.85 204.81" stroke="rgba(111, 99, 173, 0.53)" stroke-width="1.5"></path><path d="M1097.62 559.51L1097.62 559.51" stroke="rgba(111, 99, 173, 0.53)" stroke-width="1.5"></path><path d="M1097.62 559.51L1135.17 683.1" stroke="rgba(111, 99, 173, 0.53)" stroke-width="1.5"></path><path d="M1097.62 559.51L1240.58 508.58" stroke="rgba(111, 99, 173, 0.53)" stroke-width="1.5"></path><path d="M1135.17 683.1L1135.17 683.1" stroke="rgba(111, 99, 173, 0.53)" stroke-width="1.5"></path><path d="M1135.17 683.1L1257.33 682.25" stroke="rgba(111, 99, 173, 0.53)" stroke-width="1.5"></path><path d="M1135.17 683.1L1240.58 508.58" stroke="rgba(111, 99, 173, 0.53)" stroke-width="1.5"></path><path d="M1287.53 -47.14L1287.53 -47.14" stroke="rgba(111, 99, 173, 0.53)" stroke-width="1.5"></path><path d="M1287.53 -47.14L1284.33 59.74" stroke="rgba(111, 99, 173, 0.53)" stroke-width="1.5"></path><path d="M1287.53 -47.14L1398.72 54.14" stroke="rgba(111, 99, 173, 0.53)" stroke-width="1.5"></path><path d="M1287.53 -47.14L1435.71 -106.94" stroke="rgba(111, 99, 173, 0.53)" stroke-width="1.5"></path><path d="M1287.53 -47.14L1105.95 -41.37" stroke="rgba(111, 99, 173, 0.53)" stroke-width="1.5"></path><path d="M1284.33 59.74L1284.33 59.74" stroke="rgba(111, 99, 173, 0.53)" stroke-width="1.5"></path><path d="M1284.33 59.74L1398.72 54.14" stroke="rgba(111, 99, 173, 0.53)" stroke-width="1.5"></path><path d="M1247.79 363.57L1247.79 363.57" stroke="rgba(111, 99, 173, 0.53)" stroke-width="1.5"></path><path d="M1247.79 363.57L1240.58 508.58" stroke="rgba(111, 99, 173, 0.53)" stroke-width="1.5"></path><path d="M1247.79 363.57L1409.38 350.83" stroke="rgba(111, 99, 173, 0.53)" stroke-width="1.5"></path><path d="M1247.79 363.57L1121.85 204.81" stroke="rgba(111, 99, 173, 0.53)" stroke-width="1.5"></path><path d="M1240.58 508.58L1240.58 508.58" stroke="rgba(111, 99, 173, 0.53)" stroke-width="1.5"></path><path d="M1240.58 508.58L1257.33 682.25" stroke="rgba(111, 99, 173, 0.53)" stroke-width="1.5"></path><path d="M1240.58 508.58L1419.35 523.31" stroke="rgba(111, 99, 173, 0.53)" stroke-width="1.5"></path><path d="M1240.58 508.58L1087.94 382.95" stroke="rgba(111, 99, 173, 0.53)" stroke-width="1.5"></path><path d="M1257.33 682.25L1257.33 682.25" stroke="rgba(111, 99, 173, 0.53)" stroke-width="1.5"></path><path d="M1435.71 -106.94L1435.71 -106.94" stroke="rgba(111, 99, 173, 0.53)" stroke-width="1.5"></path><path d="M1435.71 -106.94L1576.59 -66.92" stroke="rgba(111, 99, 173, 0.53)" stroke-width="1.5"></path><path d="M1435.71 -106.94L1398.72 54.14" stroke="rgba(111, 99, 173, 0.53)" stroke-width="1.5"></path><path d="M1435.71 -106.94L1567.07 74.47" stroke="rgba(111, 99, 173, 0.53)" stroke-width="1.5"></path><path d="M1435.71 -106.94L1284.33 59.74" stroke="rgba(111, 99, 173, 0.53)" stroke-width="1.5"></path><path d="M1435.71 -106.94L1105.95 -41.37" stroke="rgba(111, 99, 173, 0.53)" stroke-width="1.5"></path><path d="M1398.72 54.14L1398.72 54.14" stroke="rgba(111, 99, 173, 0.53)" stroke-width="1.5"></path><path d="M1430.26 257.26L1430.26 257.26" stroke="rgba(111, 99, 173, 0.53)" stroke-width="1.5"></path><path d="M1430.26 257.26L1409.38 350.83" stroke="rgba(111, 99, 173, 0.53)" stroke-width="1.5"></path><path d="M1430.26 257.26L1591.42 339.34" stroke="rgba(111, 99, 173, 0.53)" stroke-width="1.5"></path><path d="M1430.26 257.26L1398.72 54.14" stroke="rgba(111, 99, 173, 0.53)" stroke-width="1.5"></path><path d="M1409.38 350.83L1409.38 350.83" stroke="rgba(111, 99, 173, 0.53)" stroke-width="1.5"></path><path d="M1409.38 350.83L1419.35 523.31" stroke="rgba(111, 99, 173, 0.53)" stroke-width="1.5"></path><path d="M1409.38 350.83L1591.42 339.34" stroke="rgba(111, 99, 173, 0.53)" stroke-width="1.5"></path><path d="M1409.38 350.83L1587.79 489.35" stroke="rgba(111, 99, 173, 0.53)" stroke-width="1.5"></path><path d="M1409.38 350.83L1240.58 508.58" stroke="rgba(111, 99, 173, 0.53)" stroke-width="1.5"></path><path d="M1419.35 523.31L1419.35 523.31" stroke="rgba(111, 99, 173, 0.53)" stroke-width="1.5"></path><path d="M1419.35 523.31L1447.26 664.16" stroke="rgba(111, 99, 173, 0.53)" stroke-width="1.5"></path><path d="M1419.35 523.31L1587.79 489.35" stroke="rgba(111, 99, 173, 0.53)" stroke-width="1.5"></path><path d="M1447.26 664.16L1447.26 664.16" stroke="rgba(111, 99, 173, 0.53)" stroke-width="1.5"></path><path d="M1447.26 664.16L1603.71 679.79" stroke="rgba(111, 99, 173, 0.53)" stroke-width="1.5"></path><path d="M1447.26 664.16L1257.33 682.25" stroke="rgba(111, 99, 173, 0.53)" stroke-width="1.5"></path><path d="M1576.59 -66.92L1576.59 -66.92" stroke="rgba(111, 99, 173, 0.53)" stroke-width="1.5"></path><path d="M1576.59 -66.92L1567.07 74.47" stroke="rgba(111, 99, 173, 0.53)" stroke-width="1.5"></path><path d="M1576.59 -66.92L1398.72 54.14" stroke="rgba(111, 99, 173, 0.53)" stroke-width="1.5"></path><path d="M1576.59 -66.92L1287.53 -47.14" stroke="rgba(111, 99, 173, 0.53)" stroke-width="1.5"></path><path d="M1576.59 -66.92L1284.33 59.74" stroke="rgba(111, 99, 173, 0.53)" stroke-width="1.5"></path><path d="M1576.59 -66.92L1430.26 257.26" stroke="rgba(111, 99, 173, 0.53)" stroke-width="1.5"></path><path d="M1567.07 74.47L1567.07 74.47" stroke="rgba(111, 99, 173, 0.53)" stroke-width="1.5"></path><path d="M1567.07 74.47L1398.72 54.14" stroke="rgba(111, 99, 173, 0.53)" stroke-width="1.5"></path><path d="M1567.07 74.47L1430.26 257.26" stroke="rgba(111, 99, 173, 0.53)" stroke-width="1.5"></path><path d="M1567.07 74.47L1591.42 339.34" stroke="rgba(111, 99, 173, 0.53)" stroke-width="1.5"></path><path d="M1567.07 74.47L1284.33 59.74" stroke="rgba(111, 99, 173, 0.53)" stroke-width="1.5"></path><path d="M1591.42 339.34L1591.42 339.34" stroke="rgba(111, 99, 173, 0.53)" stroke-width="1.5"></path><path d="M1591.42 339.34L1587.79 489.35" stroke="rgba(111, 99, 173, 0.53)" stroke-width="1.5"></path><path d="M1591.42 339.34L1419.35 523.31" stroke="rgba(111, 99, 173, 0.53)" stroke-width="1.5"></path><path d="M1587.79 489.35L1587.79 489.35" stroke="rgba(111, 99, 173, 0.53)" stroke-width="1.5"></path><path d="M1587.79 489.35L1603.71 679.79" stroke="rgba(111, 99, 173, 0.53)" stroke-width="1.5"></path><path d="M1603.71 679.79L1603.71 679.79" stroke="rgba(111, 99, 173, 0.53)" stroke-width="1.5"></path><path d="M1603.71 679.79L1419.35 523.31" stroke="rgba(111, 99, 173, 0.53)" stroke-width="1.5"></path><path d="M1603.71 679.79L1591.42 339.34" stroke="rgba(111, 99, 173, 0.53)" stroke-width="1.5"></path><path d="M1603.71 679.79L1257.33 682.25" stroke="rgba(111, 99, 173, 0.53)" stroke-width="1.5"></path><circle r="5" cx="-48.02" cy="343.12" fill="rgba(111, 99, 173, 0.53)"></circle><circle r="5" cx="-51.75" cy="531.99" fill="rgba(111, 99, 173, 0.53)"></circle><circle r="5" cx="-41.31" cy="693.12" fill="rgba(111, 99, 173, 0.53)"></circle><circle r="5" cx="70.06" cy="393.35" fill="rgba(111, 99, 173, 0.53)"></circle><circle r="5" cx="106.62" cy="556.67" fill="rgba(111, 99, 173, 0.53)"></circle><circle r="5" cx="254.77" cy="349.93" fill="rgba(111, 99, 173, 0.53)"></circle><circle r="5" cx="219.04" cy="557.91" fill="rgba(111, 99, 173, 0.53)"></circle><circle r="5" cx="217.23" cy="710.57" fill="rgba(111, 99, 173, 0.53)"></circle><circle r="5" cx="363.02" cy="412.22" fill="rgba(111, 99, 173, 0.53)"></circle><circle r="5" cx="351.79" cy="489.12" fill="rgba(111, 99, 173, 0.53)"></circle><circle r="5" cx="359.74" cy="689.51" fill="rgba(111, 99, 173, 0.53)"></circle><circle r="5" cx="542.02" cy="341.23" fill="rgba(111, 99, 173, 0.53)"></circle><circle r="5" cx="516.23" cy="512.89" fill="rgba(111, 99, 173, 0.53)"></circle><circle r="5" cx="543.16" cy="641.5" fill="rgba(111, 99, 173, 0.53)"></circle><circle r="5" cx="696.61" cy="253" fill="rgba(111, 99, 173, 0.53)"></circle><circle r="5" cx="693.09" cy="494.88" fill="rgba(111, 99, 173, 0.53)"></circle><circle r="5" cx="708.82" cy="682.99" fill="rgba(111, 99, 173, 0.53)"></circle><circle r="5" cx="862.39" cy="205.91" fill="rgba(111, 99, 173, 0.53)"></circle><circle r="5" cx="827.53" cy="364.15" fill="rgba(111, 99, 173, 0.53)"></circle><circle r="5" cx="799.69" cy="509.73" fill="rgba(111, 99, 173, 0.53)"></circle><circle r="5" cx="967.18" cy="-66.72" fill="rgba(111, 99, 173, 0.53)"></circle><circle r="5" cx="987.34" cy="37.8" fill="rgba(111, 99, 173, 0.53)"></circle><circle r="5" cx="999.68" cy="213.89" fill="rgba(111, 99, 173, 0.53)"></circle><circle r="5" cx="941.86" cy="390.03" fill="rgba(111, 99, 173, 0.53)"></circle><circle r="5" cx="948.7" cy="495.84" fill="rgba(111, 99, 173, 0.53)"></circle><circle r="5" cx="973.36" cy="709.58" fill="rgba(111, 99, 173, 0.53)"></circle><circle r="5" cx="1105.95" cy="-41.37" fill="rgba(111, 99, 173, 0.53)"></circle><circle r="5" cx="1135.07" cy="65.97" fill="rgba(111, 99, 173, 0.53)"></circle><circle r="5" cx="1121.85" cy="204.81" fill="rgba(111, 99, 173, 0.53)"></circle><circle r="5" cx="1087.94" cy="382.95" fill="rgba(111, 99, 173, 0.53)"></circle><circle r="5" cx="1097.62" cy="559.51" fill="rgba(111, 99, 173, 0.53)"></circle><circle r="5" cx="1135.17" cy="683.1" fill="rgba(111, 99, 173, 0.53)"></circle><circle r="5" cx="1287.53" cy="-47.14" fill="rgba(111, 99, 173, 0.53)"></circle><circle r="5" cx="1284.33" cy="59.74" fill="rgba(111, 99, 173, 0.53)"></circle><circle r="5" cx="1247.79" cy="363.57" fill="rgba(111, 99, 173, 0.53)"></circle><circle r="5" cx="1240.58" cy="508.58" fill="rgba(111, 99, 173, 0.53)"></circle><circle r="5" cx="1257.33" cy="682.25" fill="rgba(111, 99, 173, 0.53)"></circle><circle r="5" cx="1435.71" cy="-106.94" fill="rgba(111, 99, 173, 0.53)"></circle><circle r="5" cx="1398.72" cy="54.14" fill="rgba(111, 99, 173, 0.53)"></circle><circle r="5" cx="1430.26" cy="257.26" fill="rgba(111, 99, 173, 0.53)"></circle><circle r="5" cx="1409.38" cy="350.83" fill="rgba(111, 99, 173, 0.53)"></circle><circle r="5" cx="1419.35" cy="523.31" fill="rgba(111, 99, 173, 0.53)"></circle><circle r="5" cx="1447.26" cy="664.16" fill="rgba(111, 99, 173, 0.53)"></circle><circle r="5" cx="1576.59" cy="-66.92" fill="rgba(111, 99, 173, 0.53)"></circle><circle r="5" cx="1567.07" cy="74.47" fill="rgba(111, 99, 173, 0.53)"></circle><circle r="5" cx="1591.42" cy="339.34" fill="rgba(111, 99, 173, 0.53)"></circle><circle r="5" cx="1587.79" cy="489.35" fill="rgba(111, 99, 173, 0.53)"></circle><circle r="5" cx="1603.71" cy="679.79" fill="rgba(111, 99, 173, 0.53)"></circle><path d="M-53.91 704.24L-53.91 704.24" stroke="hsl(279.1, 82.5%, 61.2%)" stroke-width="1.5"></path><path d="M-53.91 704.24L42.26 533.05" stroke="hsl(279.1, 82.5%, 61.2%)" stroke-width="1.5"></path><path d="M-53.91 704.24L212.26 709.18" stroke="hsl(279.1, 82.5%, 61.2%)" stroke-width="1.5"></path><path d="M-53.91 704.24L233 516.97" stroke="hsl(279.1, 82.5%, 61.2%)" stroke-width="1.5"></path><path d="M-53.91 704.24L365.73 692.66" stroke="hsl(279.1, 82.5%, 61.2%)" stroke-width="1.5"></path><path d="M-53.91 704.24L352.58 553.66" stroke="hsl(279.1, 82.5%, 61.2%)" stroke-width="1.5"></path><path d="M-53.91 704.24L529.9 677.61" stroke="hsl(279.1, 82.5%, 61.2%)" stroke-width="1.5"></path><path d="M645.86 545.29L645.86 545.29" stroke="hsl(279.1, 82.5%, 61.2%)" stroke-width="1.5"></path><path d="M645.86 545.29L647.37 638.14" stroke="hsl(279.1, 82.5%, 61.2%)" stroke-width="1.5"></path><path d="M645.86 545.29L520.84 554.4" stroke="hsl(279.1, 82.5%, 61.2%)" stroke-width="1.5"></path><path d="M647.37 638.14L647.37 638.14" stroke="hsl(279.1, 82.5%, 61.2%)" stroke-width="1.5"></path><path d="M647.37 638.14L529.9 677.61" stroke="hsl(279.1, 82.5%, 61.2%)" stroke-width="1.5"></path><path d="M647.37 638.14L520.84 554.4" stroke="hsl(279.1, 82.5%, 61.2%)" stroke-width="1.5"></path><path d="M647.37 638.14L814.49 709.89" stroke="hsl(279.1, 82.5%, 61.2%)" stroke-width="1.5"></path><path d="M849.93 363.45L849.93 363.45" stroke="hsl(279.1, 82.5%, 61.2%)" stroke-width="1.5"></path><path d="M849.93 363.45L978.83 381.42" stroke="hsl(279.1, 82.5%, 61.2%)" stroke-width="1.5"></path><path d="M849.93 363.45L949.63 492.06" stroke="hsl(279.1, 82.5%, 61.2%)" stroke-width="1.5"></path><path d="M849.93 363.45L686.16 403.77" stroke="hsl(279.1, 82.5%, 61.2%)" stroke-width="1.5"></path><path d="M849.93 363.45L849.31 536.48" stroke="hsl(279.1, 82.5%, 61.2%)" stroke-width="1.5"></path><path d="M849.93 363.45L983.69 239.72" stroke="hsl(279.1, 82.5%, 61.2%)" stroke-width="1.5"></path><path d="M970.4 710.11L970.4 710.11" stroke="hsl(279.1, 82.5%, 61.2%)" stroke-width="1.5"></path><path d="M970.4 710.11L814.49 709.89" stroke="hsl(279.1, 82.5%, 61.2%)" stroke-width="1.5"></path><path d="M970.4 710.11L849.31 536.48" stroke="hsl(279.1, 82.5%, 61.2%)" stroke-width="1.5"></path><path d="M970.4 710.11L949.63 492.06" stroke="hsl(279.1, 82.5%, 61.2%)" stroke-width="1.5"></path><path d="M970.4 710.11L1131.95 495.55" stroke="hsl(279.1, 82.5%, 61.2%)" stroke-width="1.5"></path><path d="M1102.26 209.88L1102.26 209.88" stroke="hsl(279.1, 82.5%, 61.2%)" stroke-width="1.5"></path><path d="M1102.26 209.88L1126.36 108.89" stroke="hsl(279.1, 82.5%, 61.2%)" stroke-width="1.5"></path><path d="M1102.26 209.88L983.69 239.72" stroke="hsl(279.1, 82.5%, 61.2%)" stroke-width="1.5"></path><path d="M1102.26 209.88L1276.22 195.96" stroke="hsl(279.1, 82.5%, 61.2%)" stroke-width="1.5"></path><path d="M1102.26 209.88L1125.12 386.41" stroke="hsl(279.1, 82.5%, 61.2%)" stroke-width="1.5"></path><path d="M1102.26 209.88L1253.57 91.06" stroke="hsl(279.1, 82.5%, 61.2%)" stroke-width="1.5"></path><path d="M1102.26 209.88L978.83 381.42" stroke="hsl(279.1, 82.5%, 61.2%)" stroke-width="1.5"></path><path d="M1125.12 386.41L1125.12 386.41" stroke="hsl(279.1, 82.5%, 61.2%)" stroke-width="1.5"></path><path d="M1125.12 386.41L1131.95 495.55" stroke="hsl(279.1, 82.5%, 61.2%)" stroke-width="1.5"></path><path d="M1125.12 386.41L978.83 381.42" stroke="hsl(279.1, 82.5%, 61.2%)" stroke-width="1.5"></path><path d="M1131.95 495.55L1131.95 495.55" stroke="hsl(279.1, 82.5%, 61.2%)" stroke-width="1.5"></path><path d="M1131.95 495.55L1298.4 502.61" stroke="hsl(279.1, 82.5%, 61.2%)" stroke-width="1.5"></path><path d="M1131.95 495.55L949.63 492.06" stroke="hsl(279.1, 82.5%, 61.2%)" stroke-width="1.5"></path><path d="M1131.95 495.55L978.83 381.42" stroke="hsl(279.1, 82.5%, 61.2%)" stroke-width="1.5"></path><path d="M1131.95 495.55L1291.26 384.64" stroke="hsl(279.1, 82.5%, 61.2%)" stroke-width="1.5"></path><path d="M1425.71 108.93L1425.71 108.93" stroke="hsl(279.1, 82.5%, 61.2%)" stroke-width="1.5"></path><path d="M1425.71 108.93L1435.62 190.17" stroke="hsl(279.1, 82.5%, 61.2%)" stroke-width="1.5"></path><path d="M1425.71 108.93L1588.07 61.01" stroke="hsl(279.1, 82.5%, 61.2%)" stroke-width="1.5"></path><path d="M1425.71 108.93L1276.22 195.96" stroke="hsl(279.1, 82.5%, 61.2%)" stroke-width="1.5"></path><path d="M1425.71 108.93L1253.57 91.06" stroke="hsl(279.1, 82.5%, 61.2%)" stroke-width="1.5"></path><path d="M1425.71 108.93L1436.75 -72.61" stroke="hsl(279.1, 82.5%, 61.2%)" stroke-width="1.5"></path><path d="M1441.63 399.78L1441.63 399.78" stroke="hsl(279.1, 82.5%, 61.2%)" stroke-width="1.5"></path><path d="M1441.63 399.78L1540.3 370.51" stroke="hsl(279.1, 82.5%, 61.2%)" stroke-width="1.5"></path><path d="M1441.63 399.78L1444.45 521.78" stroke="hsl(279.1, 82.5%, 61.2%)" stroke-width="1.5"></path><path d="M1414.29 640.94L1414.29 640.94" stroke="hsl(279.1, 82.5%, 61.2%)" stroke-width="1.5"></path><path d="M1414.29 640.94L1444.45 521.78" stroke="hsl(279.1, 82.5%, 61.2%)" stroke-width="1.5"></path><path d="M1414.29 640.94L1544.39 711.42" stroke="hsl(279.1, 82.5%, 61.2%)" stroke-width="1.5"></path><path d="M1414.29 640.94L1269.97 701.81" stroke="hsl(279.1, 82.5%, 61.2%)" stroke-width="1.5"></path><path d="M1414.29 640.94L1298.4 502.61" stroke="hsl(279.1, 82.5%, 61.2%)" stroke-width="1.5"></path><path d="M1414.29 640.94L1607.55 550.87" stroke="hsl(279.1, 82.5%, 61.2%)" stroke-width="1.5"></path><path d="M1414.29 640.94L1441.63 399.78" stroke="hsl(279.1, 82.5%, 61.2%)" stroke-width="1.5"></path><path d="M1588.07 61.01L1588.07 61.01" stroke="hsl(279.1, 82.5%, 61.2%)" stroke-width="1.5"></path><path d="M1588.07 61.01L1579.5 223.68" stroke="hsl(279.1, 82.5%, 61.2%)" stroke-width="1.5"></path><path d="M42.26 533.05L42.26 533.05" stroke="hsl(279.1, 82.5%, 61.2%)" stroke-width="1.5"></path><path d="M42.26 533.05L233 516.97" stroke="hsl(279.1, 82.5%, 61.2%)" stroke-width="1.5"></path><path d="M42.26 533.05L212.26 709.18" stroke="hsl(279.1, 82.5%, 61.2%)" stroke-width="1.5"></path><path d="M42.26 533.05L352.58 553.66" stroke="hsl(279.1, 82.5%, 61.2%)" stroke-width="1.5"></path><path d="M233 516.97L233 516.97" stroke="hsl(279.1, 82.5%, 61.2%)" stroke-width="1.5"></path><path d="M233 516.97L352.58 553.66" stroke="hsl(279.1, 82.5%, 61.2%)" stroke-width="1.5"></path><path d="M233 516.97L212.26 709.18" stroke="hsl(279.1, 82.5%, 61.2%)" stroke-width="1.5"></path><path d="M212.26 709.18L212.26 709.18" stroke="hsl(279.1, 82.5%, 61.2%)" stroke-width="1.5"></path><path d="M212.26 709.18L365.73 692.66" stroke="hsl(279.1, 82.5%, 61.2%)" stroke-width="1.5"></path><path d="M212.26 709.18L352.58 553.66" stroke="hsl(279.1, 82.5%, 61.2%)" stroke-width="1.5"></path><path d="M352.58 553.66L352.58 553.66" stroke="hsl(279.1, 82.5%, 61.2%)" stroke-width="1.5"></path><path d="M352.58 553.66L365.73 692.66" stroke="hsl(279.1, 82.5%, 61.2%)" stroke-width="1.5"></path><path d="M352.58 553.66L520.84 554.4" stroke="hsl(279.1, 82.5%, 61.2%)" stroke-width="1.5"></path><path d="M365.73 692.66L365.73 692.66" stroke="hsl(279.1, 82.5%, 61.2%)" stroke-width="1.5"></path><path d="M365.73 692.66L529.9 677.61" stroke="hsl(279.1, 82.5%, 61.2%)" stroke-width="1.5"></path><path d="M365.73 692.66L520.84 554.4" stroke="hsl(279.1, 82.5%, 61.2%)" stroke-width="1.5"></path><path d="M365.73 692.66L233 516.97" stroke="hsl(279.1, 82.5%, 61.2%)" stroke-width="1.5"></path><path d="M365.73 692.66L647.37 638.14" stroke="hsl(279.1, 82.5%, 61.2%)" stroke-width="1.5"></path><path d="M520.84 554.4L520.84 554.4" stroke="hsl(279.1, 82.5%, 61.2%)" stroke-width="1.5"></path><path d="M520.84 554.4L529.9 677.61" stroke="hsl(279.1, 82.5%, 61.2%)" stroke-width="1.5"></path><path d="M529.9 677.61L529.9 677.61" stroke="hsl(279.1, 82.5%, 61.2%)" stroke-width="1.5"></path><path d="M686.16 403.77L686.16 403.77" stroke="hsl(279.1, 82.5%, 61.2%)" stroke-width="1.5"></path><path d="M686.16 403.77L645.86 545.29" stroke="hsl(279.1, 82.5%, 61.2%)" stroke-width="1.5"></path><path d="M686.16 403.77L849.31 536.48" stroke="hsl(279.1, 82.5%, 61.2%)" stroke-width="1.5"></path><path d="M686.16 403.77L520.84 554.4" stroke="hsl(279.1, 82.5%, 61.2%)" stroke-width="1.5"></path><path d="M686.16 403.77L647.37 638.14" stroke="hsl(279.1, 82.5%, 61.2%)" stroke-width="1.5"></path><path d="M849.31 536.48L849.31 536.48" stroke="hsl(279.1, 82.5%, 61.2%)" stroke-width="1.5"></path><path d="M849.31 536.48L949.63 492.06" stroke="hsl(279.1, 82.5%, 61.2%)" stroke-width="1.5"></path><path d="M814.49 709.89L814.49 709.89" stroke="hsl(279.1, 82.5%, 61.2%)" stroke-width="1.5"></path><path d="M814.49 709.89L849.31 536.48" stroke="hsl(279.1, 82.5%, 61.2%)" stroke-width="1.5"></path><path d="M983.69 239.72L983.69 239.72" stroke="hsl(279.1, 82.5%, 61.2%)" stroke-width="1.5"></path><path d="M983.69 239.72L978.83 381.42" stroke="hsl(279.1, 82.5%, 61.2%)" stroke-width="1.5"></path><path d="M983.69 239.72L1126.36 108.89" stroke="hsl(279.1, 82.5%, 61.2%)" stroke-width="1.5"></path><path d="M978.83 381.42L978.83 381.42" stroke="hsl(279.1, 82.5%, 61.2%)" stroke-width="1.5"></path><path d="M978.83 381.42L949.63 492.06" stroke="hsl(279.1, 82.5%, 61.2%)" stroke-width="1.5"></path><path d="M949.63 492.06L949.63 492.06" stroke="hsl(279.1, 82.5%, 61.2%)" stroke-width="1.5"></path><path d="M949.63 492.06L1125.12 386.41" stroke="hsl(279.1, 82.5%, 61.2%)" stroke-width="1.5"></path><path d="M1126.36 108.89L1126.36 108.89" stroke="hsl(279.1, 82.5%, 61.2%)" stroke-width="1.5"></path><path d="M1126.36 108.89L1253.57 91.06" stroke="hsl(279.1, 82.5%, 61.2%)" stroke-width="1.5"></path><path d="M1126.36 108.89L1276.22 195.96" stroke="hsl(279.1, 82.5%, 61.2%)" stroke-width="1.5"></path><path d="M1282.12 -71.86L1282.12 -71.86" stroke="hsl(279.1, 82.5%, 61.2%)" stroke-width="1.5"></path><path d="M1282.12 -71.86L1436.75 -72.61" stroke="hsl(279.1, 82.5%, 61.2%)" stroke-width="1.5"></path><path d="M1253.57 91.06L1253.57 91.06" stroke="hsl(279.1, 82.5%, 61.2%)" stroke-width="1.5"></path><path d="M1253.57 91.06L1276.22 195.96" stroke="hsl(279.1, 82.5%, 61.2%)" stroke-width="1.5"></path><path d="M1253.57 91.06L1282.12 -71.86" stroke="hsl(279.1, 82.5%, 61.2%)" stroke-width="1.5"></path><path d="M1276.22 195.96L1276.22 195.96" stroke="hsl(279.1, 82.5%, 61.2%)" stroke-width="1.5"></path><path d="M1276.22 195.96L1435.62 190.17" stroke="hsl(279.1, 82.5%, 61.2%)" stroke-width="1.5"></path><path d="M1291.26 384.64L1291.26 384.64" stroke="hsl(279.1, 82.5%, 61.2%)" stroke-width="1.5"></path><path d="M1291.26 384.64L1298.4 502.61" stroke="hsl(279.1, 82.5%, 61.2%)" stroke-width="1.5"></path><path d="M1291.26 384.64L1441.63 399.78" stroke="hsl(279.1, 82.5%, 61.2%)" stroke-width="1.5"></path><path d="M1291.26 384.64L1125.12 386.41" stroke="hsl(279.1, 82.5%, 61.2%)" stroke-width="1.5"></path><path d="M1291.26 384.64L1276.22 195.96" stroke="hsl(279.1, 82.5%, 61.2%)" stroke-width="1.5"></path><path d="M1291.26 384.64L1444.45 521.78" stroke="hsl(279.1, 82.5%, 61.2%)" stroke-width="1.5"></path><path d="M1298.4 502.61L1298.4 502.61" stroke="hsl(279.1, 82.5%, 61.2%)" stroke-width="1.5"></path><path d="M1298.4 502.61L1444.45 521.78" stroke="hsl(279.1, 82.5%, 61.2%)" stroke-width="1.5"></path><path d="M1298.4 502.61L1441.63 399.78" stroke="hsl(279.1, 82.5%, 61.2%)" stroke-width="1.5"></path><path d="M1298.4 502.61L1269.97 701.81" stroke="hsl(279.1, 82.5%, 61.2%)" stroke-width="1.5"></path><path d="M1269.97 701.81L1269.97 701.81" stroke="hsl(279.1, 82.5%, 61.2%)" stroke-width="1.5"></path><path d="M1269.97 701.81L1131.95 495.55" stroke="hsl(279.1, 82.5%, 61.2%)" stroke-width="1.5"></path><path d="M1436.75 -72.61L1436.75 -72.61" stroke="hsl(279.1, 82.5%, 61.2%)" stroke-width="1.5"></path><path d="M1435.62 190.17L1435.62 190.17" stroke="hsl(279.1, 82.5%, 61.2%)" stroke-width="1.5"></path><path d="M1435.62 190.17L1579.5 223.68" stroke="hsl(279.1, 82.5%, 61.2%)" stroke-width="1.5"></path><path d="M1435.62 190.17L1588.07 61.01" stroke="hsl(279.1, 82.5%, 61.2%)" stroke-width="1.5"></path><path d="M1435.62 190.17L1253.57 91.06" stroke="hsl(279.1, 82.5%, 61.2%)" stroke-width="1.5"></path><path d="M1444.45 521.78L1444.45 521.78" stroke="hsl(279.1, 82.5%, 61.2%)" stroke-width="1.5"></path><path d="M1444.45 521.78L1607.55 550.87" stroke="hsl(279.1, 82.5%, 61.2%)" stroke-width="1.5"></path><path d="M1444.45 521.78L1540.3 370.51" stroke="hsl(279.1, 82.5%, 61.2%)" stroke-width="1.5"></path><path d="M1594.61 -102.63L1594.61 -102.63" stroke="hsl(279.1, 82.5%, 61.2%)" stroke-width="1.5"></path><path d="M1594.61 -102.63L1436.75 -72.61" stroke="hsl(279.1, 82.5%, 61.2%)" stroke-width="1.5"></path><path d="M1594.61 -102.63L1588.07 61.01" stroke="hsl(279.1, 82.5%, 61.2%)" stroke-width="1.5"></path><path d="M1594.61 -102.63L1425.71 108.93" stroke="hsl(279.1, 82.5%, 61.2%)" stroke-width="1.5"></path><path d="M1579.5 223.68L1579.5 223.68" stroke="hsl(279.1, 82.5%, 61.2%)" stroke-width="1.5"></path><path d="M1579.5 223.68L1540.3 370.51" stroke="hsl(279.1, 82.5%, 61.2%)" stroke-width="1.5"></path><path d="M1579.5 223.68L1425.71 108.93" stroke="hsl(279.1, 82.5%, 61.2%)" stroke-width="1.5"></path><path d="M1579.5 223.68L1441.63 399.78" stroke="hsl(279.1, 82.5%, 61.2%)" stroke-width="1.5"></path><path d="M1540.3 370.51L1540.3 370.51" stroke="hsl(279.1, 82.5%, 61.2%)" stroke-width="1.5"></path><path d="M1607.55 550.87L1607.55 550.87" stroke="hsl(279.1, 82.5%, 61.2%)" stroke-width="1.5"></path><path d="M1607.55 550.87L1544.39 711.42" stroke="hsl(279.1, 82.5%, 61.2%)" stroke-width="1.5"></path><path d="M1544.39 711.42L1544.39 711.42" stroke="hsl(279.1, 82.5%, 61.2%)" stroke-width="1.5"></path><path d="M1544.39 711.42L1444.45 521.78" stroke="hsl(279.1, 82.5%, 61.2%)" stroke-width="1.5"></path><circle r="25" cx="-53.91" cy="704.24" fill="url(#SvgjsRadialGradient1013)"></circle><circle r="25" cx="645.86" cy="545.29" fill="url(#SvgjsRadialGradient1013)"></circle><circle r="25" cx="647.37" cy="638.14" fill="url(#SvgjsRadialGradient1013)"></circle><circle r="25" cx="849.93" cy="363.45" fill="url(#SvgjsRadialGradient1013)"></circle><circle r="25" cx="970.4" cy="710.11" fill="url(#SvgjsRadialGradient1013)"></circle><circle r="25" cx="1102.26" cy="209.88" fill="url(#SvgjsRadialGradient1013)"></circle><circle r="25" cx="1125.12" cy="386.41" fill="url(#SvgjsRadialGradient1013)"></circle><circle r="25" cx="1131.95" cy="495.55" fill="url(#SvgjsRadialGradient1013)"></circle><circle r="25" cx="1425.71" cy="108.93" fill="url(#SvgjsRadialGradient1013)"></circle><circle r="25" cx="1441.63" cy="399.78" fill="url(#SvgjsRadialGradient1013)"></circle><circle r="25" cx="1414.29" cy="640.94" fill="url(#SvgjsRadialGradient1013)"></circle><circle r="25" cx="1588.07" cy="61.01" fill="url(#SvgjsRadialGradient1013)"></circle><circle r="5" cx="42.26" cy="533.05" fill="#cb8aed"></circle><circle r="5" cx="233" cy="516.97" fill="#cb8aed"></circle><circle r="5" cx="212.26" cy="709.18" fill="#cb8aed"></circle><circle r="5" cx="352.58" cy="553.66" fill="#cb8aed"></circle><circle r="5" cx="365.73" cy="692.66" fill="#cb8aed"></circle><circle r="5" cx="520.84" cy="554.4" fill="#cb8aed"></circle><circle r="5" cx="529.9" cy="677.61" fill="#cb8aed"></circle><circle r="5" cx="686.16" cy="403.77" fill="#cb8aed"></circle><circle r="5" cx="849.31" cy="536.48" fill="#cb8aed"></circle><circle r="5" cx="814.49" cy="709.89" fill="#cb8aed"></circle><circle r="5" cx="983.69" cy="239.72" fill="#cb8aed"></circle><circle r="5" cx="978.83" cy="381.42" fill="#cb8aed"></circle><circle r="5" cx="949.63" cy="492.06" fill="#cb8aed"></circle><circle r="5" cx="1126.36" cy="108.89" fill="#cb8aed"></circle><circle r="5" cx="1282.12" cy="-71.86" fill="#cb8aed"></circle><circle r="5" cx="1253.57" cy="91.06" fill="#cb8aed"></circle><circle r="5" cx="1276.22" cy="195.96" fill="#cb8aed"></circle><circle r="5" cx="1291.26" cy="384.64" fill="#cb8aed"></circle><circle r="5" cx="1298.4" cy="502.61" fill="#cb8aed"></circle><circle r="5" cx="1269.97" cy="701.81" fill="#cb8aed"></circle><circle r="5" cx="1436.75" cy="-72.61" fill="#cb8aed"></circle><circle r="5" cx="1435.62" cy="190.17" fill="#cb8aed"></circle><circle r="5" cx="1444.45" cy="521.78" fill="#cb8aed"></circle><circle r="5" cx="1594.61" cy="-102.63" fill="#cb8aed"></circle><circle r="5" cx="1579.5" cy="223.68" fill="#cb8aed"></circle><circle r="5" cx="1540.3" cy="370.51" fill="#cb8aed"></circle><circle r="5" cx="1607.55" cy="550.87" fill="#cb8aed"></circle><circle r="5" cx="1544.39" cy="711.42" fill="#cb8aed"></circle></g><defs><mask id="SvgjsMask1012"><rect width="1440" height="560" fill="#ffffff"></rect></mask><radialGradient id="SvgjsRadialGradient1013"><stop stop-color="#ffffff" offset="0.1"></stop><stop stop-color="rgba(150, 21, 219, 1)" offset="0.2"></stop><stop stop-color="rgba(150, 21, 219, 0)" offset="1"></stop></radialGradient></defs></svg>