<svg id="visual" viewBox="0 0 1200 600" width="1200" height="600" xmlns="http://www.w3.org/2000/svg" xmlns:xlink="http://www.w3.org/1999/xlink" version="1.1"><path d="M0 267L28.5 277.8C57 288.7 114 310.3 171.2 308.2C228.3 306 285.7 280 342.8 277.5C400 275 457 296 514.2 331.5C571.3 367 628.7 417 685.8 439.3C743 461.7 800 456.3 857.2 454.2C914.3 452 971.7 453 1028.8 444.8C1086 436.7 1143 419.3 1171.5 410.7L1200 402L1200 601L1171.5 601C1143 601 1086 601 1028.8 601C971.7 601 914.3 601 857.2 601C800 601 743 601 685.8 601C628.7 601 571.3 601 514.2 601C457 601 400 601 342.8 601C285.7 601 228.3 601 171.2 601C114 601 57 601 28.5 601L0 601Z" fill="#001B3B" stroke-linecap="round" stroke-linejoin="miter"></path></svg>